<?xml version="1.0" encoding="UTF-8"?>
<svg id="Layer_1" data-name="Layer 1" xmlns="http://www.w3.org/2000/svg" viewBox="0 0 570.49 314.14" fill="#004368">
  <path d="M64.32,126.36c-28.33,106.16,76.9,204.4,178.79,153.8,2.52-1.25,4.93-3.02,7.6-4-1.75,1.98-6.03,5.22-6.04,5.23-73.83,58.29-178.5,36.04-224.06-44.97C-17.67,168.34-1.53,80.26,59.93,31.95,126.52-20.4,220.79-6.72,271.12,60.51c1.22,1.63,2.82,3.28,3.6,5.2-1.67-1.38-3.18-2.96-4.8-4.4C197.9-2.93,88.56,35.52,64.32,126.36Z"/>
  <polygon points="283.1 56.98 287.35 70.07 301.12 70.07 289.98 78.17 294.24 91.26 283.1 83.17 271.96 91.26 276.21 78.17 265.07 70.07 278.84 70.07 283.1 56.98"/>
  <g>
    <path d="M511.93,109.74c-2.97-2.97-6.53-4.95-10.49-6.29-3.34-1.13-6.82-1.47-10.3-1.72-5.26-.39-10.53-.47-15.8-.47-15.35-.01-30.7,0-46.05,0-.51,0-1.02.04-1.53.06-.12.26-.26.46-.31.67-8.43,34.21-16.86,68.42-25.27,102.63-.04.15.02.33.03.49.12.06.22.13.33.14.28.03.57.03.86.03,7.96,0,15.92-.02,23.88-.03.05,0,.11-.03.16-.06.05-.03.08-.07.17-.14.1-.33.25-.7.34-1.09,3.01-12.09,6.02-24.19,9.04-36.28.13-.54.33-1.06.5-1.62,11.03-.16,21.97.26,33.05-.44,1.7-.13,3.25-.21,4.79-.38,1.99-.22,3.99-.44,5.96-.79,4.47-.81,8.71-2.35,12.84-4.23,5.22-2.39,9.73-5.74,13.68-9.87,4.79-5.01,7.72-10.97,9.18-17.68.78-3.57,1.25-7.16.79-10.85-.58-4.7-2.5-8.71-5.85-12.07ZM490.35,133.32c-.24.99-.64,1.94-.97,2.91-1.91,3.98-4.84,6.61-8.45,8.54-2.75,1.47-5.71,2.32-8.79,2.72-3.24.42-6.48.69-9.75.73-6.29.08-12.58.13-18.88.19-.55,0-1.13.13-1.75-.23,2.37-9.78,4.86-19.5,7.32-29.3.51-.03.96-.09,1.41-.09,5.89.01,11.78.01,17.68.06,3.66.03,7.32.18,10.96.63,2.59.32,5.01,1.12,7.17,2.62,2.4,1.68,3.98,3.87,4.43,6.82.23,1.5-.02,2.95-.37,4.39Z"/>
    <path d="M386.65,113.12c-5.99-5.59-12.9-9.57-20.98-11.43-7.9-1.81-15.87-2.06-23.9-1.22-6.8.72-13.41,2.31-19.9,4.44-3.06,1-5.97,2.31-8.67,4.32-.37.28-.63.5-.9.72-4.5,3.56-7.13,8.24-8.26,13.79-.9,4.41-.77,8.83.07,13.24.56,2.93,1.88,5.47,3.85,7.7,1.52,1.72,3.29,3.17,5.14,4.51,3.35,2.42,7.03,4.26,10.82,5.88,5.11,2.17,10.35,3.98,15.59,5.81,4.37,1.53,8.72,3.13,12.9,5.12,2.02.96,3.97,2.02,5.76,3.37,1.14.87,2.19,1.84,2.96,3.07.74,1.19,1.22,2.48,1.07,3.88-.11,1.07-.31,2.15-.62,3.18-1,3.31-3.2,5.59-6.31,7.04-2.09.97-4.28,1.6-6.54,2.04-3.32.65-6.69.89-10.06,1.15-3.9.29-7.78.14-11.64-.49-2.67-.43-5.24-1.19-7.64-2.47-3.84-2.06-6.29-5.19-7.3-9.43-.36-1.51-.45-3.04-.42-4.58,0-.38-.06-.75-.1-1.19-2.67.14-5.24.27-7.81.41-2.63.14-5.26.3-7.89.45-2.55.14-5.11.11-7.75.52,0,.71-.03,1.33,0,1.95.1,1.48.16,2.96.37,4.42.57,4.01,1.98,7.7,4.33,11.03,3.37,4.76,7.76,8.34,13.02,10.85,7.06,3.37,14.54,5.18,22.35,5.45,8.5.29,16.93-.36,25.28-2.03,5.46-1.09,10.77-2.67,15.81-5.06,2.96-1.4,5.73-3.1,8.22-5.23,4.77-4.05,8.03-8.99,9.1-15.23.54-3.17.62-6.34-.03-9.51-1.01-4.86-3.5-8.86-7.15-12.17-3.12-2.83-6.71-4.94-10.47-6.77-4.48-2.18-9.15-3.89-13.86-5.5-3.41-1.16-6.86-2.22-10.14-3.71-2.03-.92-4.09-1.75-6.19-2.51-2.53-.92-4.95-2.09-7.12-3.72-1.1-.83-2.11-1.75-2.93-2.86-1.04-1.42-1.66-3-1.57-4.77.15-3.06,1.41-5.59,3.81-7.54,2.14-1.74,4.63-2.73,7.32-3.15,5.45-.85,10.93-1.16,16.43-.41,3.49.48,6.82,1.43,9.84,3.32,3.98,2.5,6.55,5.96,7.41,10.61.06.32.15.64.24,1,.77,0,1.45.03,2.13,0,1.2-.06,2.4-.17,3.6-.23,4.92-.25,9.83-.56,14.73-1.1.84-.09,1.69-.18,2.46-.54.03-.24.08-.41.06-.57-.08-.56-.16-1.13-.29-1.68-1.3-5.54-4.06-10.27-8.21-14.14Z"/>
    <path d="M268.27,187.69c-10.19,0-20.38.04-30.58.04-9.68,0-19.35-.02-29.03-.04-.56,0-1.14.14-1.74-.25.07-.42.11-.87.21-1.3,4.84-19.55,9.68-39.1,14.52-58.66,1.98-8.01,3.93-16.03,5.88-24.04.1-.42.28-.85.03-1.3h-25.36c-1.35,5.33-2.69,10.62-4.07,16.05-.96,3.89-1.89,7.65-2.81,11.41-2.94,11.94-5.86,23.87-8.81,35.81-3.19,12.93-6.41,25.85-9.61,38.77-.07.3-.04.63-.07,1.08.79,0,1.48,0,2.16,0,16.55.01,33.1.04,49.64.04,11.91,0,23.82-.02,35.73-.04.5,0,1-.06,1.57-.09,1.52-5.79,2.87-11.52,4.28-17.29-.71-.32-1.34-.19-1.95-.19Z"/>
    <path d="M570.47,101.5c-.02-.05-.05-.1-.12-.22-.34-.03-.73-.08-1.12-.08-7.79.01-15.57.03-23.36.06-.33,0-.66.08-1,.13-.13.44-.27.81-.36,1.19-.81,3.32-1.6,6.64-2.42,9.95-1.35,5.47-2.72,10.93-4.1,16.54-.25,1.02-.48,1.9-.7,2.79-3.96,16.02-7.9,32.05-11.87,48.06-1.94,7.84-3.92,15.68-5.88,23.52-.13.54-.21,1.09-.35,1.81,8.6.02,17.06.07,25.46,0,.12-.19.19-.28.23-.38.09-.21.17-.42.23-.64,8.46-34.19,16.92-68.38,25.38-102.57.01-.05,0-.11-.01-.16Z"/>
  </g>
  <g>
    <path d="M226.97,226.33c-.61-1.18-1.57-1.93-2.84-2.3-1.5-.43-2.96-.33-4.3.5-.72.45-1.35,1.04-2.03,1.56-.25.2-.52.37-.83.58-.81-1.45-1.86-2.44-3.58-2.76-1.89-.36-3.41.14-4.78,1.22-.22.18-.43.37-.65.56-.21.18-.38.44-.73.28-.07-.54-.14-1.09-.2-1.61-1.38-.36-1.4-.36-2.61.09-.01,1.31-.03,2.67-.04,4.03,0,1.37,0,2.73,0,4.1,0,1.37-.02,2.73,0,4.1.03,1.35-.13,2.71.14,4.08.95.22,1.84.28,2.73-.03.28-.57.19-1.15.19-1.71.01-2.85,0-5.69.01-8.54,0-.44,0-1,.25-1.29.7-.82,1.44-1.65,2.32-2.25,1.49-1.03,3.21-.47,3.99,1.18.19.4.33.86.38,1.3.09.67.11,1.36.12,2.04.02,2.73.02,5.46.05,8.2,0,.38.11.75.17,1.14.99.12,1.88.29,2.82-.13.03-.6.07-1.16.08-1.73.01-2.45.02-4.9.02-7.34,0-2.41.04-2.53,1.86-4.08.13-.11.26-.22.4-.32,1.94-1.44,4.01-.72,4.63,1.62.09.33.13.67.16,1.01.04.62.07,1.25.08,1.88.02,2.45.02,4.9.05,7.34,0,.56-.11,1.14.19,1.67q1.38.28,2.77-.03c.02-.54.05-1.1.06-1.66.02-2.05.04-4.1.03-6.15,0-1.25-.05-2.5-.11-3.75-.05-.98-.33-1.9-.78-2.77Z"/>
    <path d="M564.33,229.7c0-.73-.14-1.48-.34-2.18-.94-3.26-4.38-4.7-7.39-3.09-.79.43-1.46,1.08-2.19,1.63-.26.2-.52.41-.79.62-.16-.2-.27-.33-.37-.46-1.98-2.71-5.05-3.22-7.8-1.29-.33.23-.61.51-.93.75-.21.15-.44.27-.72.45-.08-.7-.15-1.25-.21-1.77q-1.36-.34-2.51.03c-.25,1.78-.22,14.86.04,16.37.89.21,1.77.26,2.61,0,.39-.6.25-1.19.26-1.74.02-2.79,0-5.58.03-8.37,0-.5,0-1.09.26-1.47.67-.99,1.5-1.87,2.6-2.43,1.37-.69,2.81-.28,3.54,1.05.29.53.46,1.16.58,1.76.1.55.07,1.13.07,1.7.01,2.73.01,5.47.03,8.2,0,.44-.11.92.37,1.33.82.14,1.7.24,2.65-.11.03-.62.07-1.18.07-1.75.02-2.62.09-5.24,0-7.86-.04-1.25.3-2.22,1.25-3,.26-.22.49-.48.76-.69,1.98-1.62,3.63-1.25,4.84,1.2.13,1.04.26,1.94.28,2.85.04,2.73.03,5.46.05,8.2,0,.37.1.75.16,1.16,1,.07,1.88.3,2.71-.12.05-.19.1-.3.1-.41,0-3.53.02-7.06,0-10.59Z"/>
    <path d="M282.31,224.1c-.9-.15-1.72-.2-2.58,0-.08.47-.15.88-.24,1.42-.49-.36-.84-.63-1.21-.88-3.01-2.03-7.32-1.26-9.23,1.81-2.18,3.51-2.35,7.24-.38,10.89,1.96,3.64,6.22,4.61,9.73,2.39.23-.14.45-.31.71-.49.29,1.52.2,2.79-.22,3.73-.42.93-1.1,1.61-2.07,1.91-1.22.38-2.46.47-3.72.12-.94-.26-1.64-.77-2.01-1.69-.12-.3-.26-.6-.38-.89-.92-.17-1.74-.36-2.71-.26-.12,1.93.55,3.38,2.13,4.38.48.3,1.03.48,1.68.75,2.24.52,4.33.56,6.38-.2,2.07-.77,3.47-2.19,3.87-4.41.19-1.06.31-2.14.32-3.22.03-4.72.02-9.45.01-14.17,0-.39-.05-.77-.09-1.21ZM279.11,235.41c-.84,2.42-3.36,3.58-5.66,2.68-1-.39-1.71-1.09-2.2-2.04-.59-1.15-.7-2.39-.73-3.64-.01-.51.05-1.02.08-1.53.24-1.01.35-1.76.67-2.41.7-1.41,1.82-2.31,3.47-2.39,1.71-.09,2.95.71,3.86,2.08.25.37.45.8.58,1.23.61,2.01.61,4.05-.08,6.03Z"/>
    <path d="M246.57,227.1c-1.11-2.28-3.01-3.33-5.54-3.3-1.38.02-2.54.55-3.64,1.32-.34.24-.58.75-1.14.58-.04-.11-.12-.22-.12-.33-.02-2.28-.03-4.55-.04-6.99-.03-.66-.05-1.17-.08-1.69-.97-.28-1.86-.25-2.74-.06-.38.68-.24,1.38-.24,2.05-.01,5.46-.01,10.93-.01,16.39,0,1.54,0,3.07.03,4.61,0,.38.13.75.2,1.1.84.18,1.56.21,2.34-.02.12-.55.23-1.08.36-1.72.62.45,1.13.81,1.63,1.18,2.34,1.74,6.67,1.3,8.59-1.8.55-.88.95-1.81,1.17-2.82.44-2.03.5-4.07.04-6.1-.19-.83-.43-1.66-.8-2.42ZM244.23,234.62c-.16.91-.45,1.77-.99,2.52-.97,1.37-2.55,1.84-4.09,1.18-1.19-.51-2.06-1.42-2.82-2.43-.16-.21-.24-.53-.23-.8.02-1.87.08-3.75.12-5.62.78-.88,1.39-1.56,2.06-2.17.56-.5,1.26-.76,2.03-.83,1.25-.11,2.23.34,2.95,1.37.5.71.8,1.52.94,2.36.24,1.47.29,2.95.03,4.42Z"/>
    <path d="M462.83,225.32c-.03-.37-.19-.73-.32-1.19-1.78-.06-3.49-.01-5.2-.04-1.76-.03-3.53.12-5.37-.09-.31-1.36.08-2.75-.29-4.07-.95-.21-1.83-.26-2.75.04-.04,1.38-.08,2.67-.13,4.03-.9.07-1.68.12-2.45.18-.38.8-.54,1.55.05,2.35.75.1,1.53.2,2.38.32.02.64.06,1.19.06,1.75.01,2.45,0,4.9.02,7.35,0,.97.08,1.93.46,2.85.36.89.96,1.56,1.86,1.91,1.32.52,2.67.59,4.03.18.58-.17,1.08-.46,1.21-1.09.13-.61.15-1.24-.4-1.68-.73.13-1.4.31-2.08.35-.95.05-1.55-.37-1.79-1.26-.18-.65-.27-1.34-.28-2.02-.04-2.45-.03-4.9-.03-7.35,0-.32.06-.65.09-.94,1.61-.31,6.42-.29,7.86.04.02.58.05,1.19.06,1.8.02,3.64.02,7.29.05,10.93,0,.38.1.75.16,1.21.71.02,1.33.03,2.09.04.46-.06.67-.25.71-.55.05-.39.06-.79.06-1.19,0-3.82,0-7.63,0-11.45,0-.8,0-1.6-.06-2.39Z"/>
    <path d="M373.07,216.67c-.8-.1-1.63-.16-2.41.05-.41.52-.28,1.05-.29,1.55-.02,2.22,0,4.43-.02,6.65,0,.25.13.57-.29.78-.38-.28-.77-.58-1.19-.86-3.07-2.05-7.06-1.07-8.84,2.17-.52.96-.88,1.98-1.04,3.05-.25,1.69-.29,3.4-.03,5.1.16,1.07.46,2.11.99,3.07,1.02,1.84,2.59,2.8,4.69,2.98,1.68.15,3.15-.36,4.59-1.41.53-.3.76-.85,1.34-.86.1.63.2,1.23.3,1.87.89.11,1.66.24,2.53-.16,0-.56,0-1.12,0-1.68,0-2.79,0-5.57,0-8.36,0-4.15,0-8.3-.02-12.45,0-.49.15-1.03-.33-1.49ZM370.36,234.89c0,.54-.13,1.01-.55,1.37-.68.59-1.31,1.29-2.07,1.76-2.06,1.27-4.33.53-5.16-1.72-.87-2.36-.86-4.79-.08-7.18.32-.99.92-1.82,1.89-2.33,1.68-.62,2.94-.26,4.06.68.44.36.84.76,1.26,1.15.49.45.69,1,.68,1.67-.03,1.53-.02,3.06-.01,4.6Z"/>
    <path d="M406.27,219.28c-.4-.22-.83-.39-1.37-.62-1.18-.38-2.26-.47-3.35-.46-1.43,0-2.86,0-4.29.02-2,.03-2.11.12-2.11,2.18-.02,6.38-.01,12.76,0,19.14,0,.38.08.77.13,1.2,1.01.23,1.94.31,2.96-.01.03-.56.08-1.06.08-1.56.01-1.88,0-3.76.01-5.64,0-.37.1-.74.17-1.17,1.19-.02,2.27-.02,3.35-.05,1.7-.05,3.28-.48,4.67-1.49,2.48-1.81,3.46-5.39,2.34-8.47-.49-1.34-1.32-2.38-2.58-3.07ZM405.71,226.69c-.45,1.56-1.49,2.53-3.07,2.86-1.33.29-2.69.34-4.14.18-.35-.97-.15-1.93-.18-2.87-.04-1.02-.04-2.04,0-3.06.03-.95-.12-1.91.15-2.93,1.66-.26,3.3-.15,4.9.21,1.12.26,1.87,1.08,2.23,2.16.21.63.25,1.33.37,1.99-.1.67-.15,1.06-.26,1.44Z"/>
    <path d="M475.35,230.32c1.37-1.37,2.76-2.72,4.12-4.1.47-.47,1-.93,1.04-1.73-.21-.11-.4-.27-.6-.31-1.5-.27-2.74-.03-3.78,1.3-1.3,1.65-2.81,3.14-4.24,4.69-.17.18-.42.28-.82.53,0-.78-.01-1.34-.01-1.9-.01-3.58-.01-7.17-.04-10.75,0-.49.15-1.03-.32-1.49-.42-.02-.88-.04-1.46-.06-.46.05-.78.1-1.14.15-.04.37-.1.64-.1.92,0,7.45,0,14.9.02,22.35,0,.27.08.54.14.85.96.19,1.84.25,2.82-.04.03-.6.07-1.16.08-1.72.01-1.88.01-3.75.03-5.63,0-.26-.06-.58.42-.7.16.17.35.35.52.57.92,1.16,1.83,2.33,2.74,3.49.84,1.08,1.7,2.14,2.5,3.25.52.72,1.18,1.03,2.05.96.45-.04.91-.05,1.36-.15.19-.04.35-.24.62-.44-2.13-3.16-4.64-5.95-6.89-9.03.35-.37.64-.71.96-1.02Z"/>
    <path d="M322.12,229.37c-.8-.44-1.61-.87-2.42-1.28-.71-.36-1.46-.67-2.15-1.07-.59-.34-1.17-.72-1.67-1.18-.95-.89-1.25-2.02-.87-3.28.37-1.23,1.3-1.82,2.49-2.08,1.1-.24,2.16-.01,3.32.41.98.32,1.69.94,2.57,1.12.85-1.9.54-2.76-1.15-3.47-1.91-.8-3.9-.93-5.89-.51-2.07.44-3.7,1.58-4.38,3.67-.93,2.86-.06,5.47,2.24,7.12.65.46,1.35.86,2.05,1.23.86.45,1.76.82,2.62,1.28.6.32,1.19.68,1.72,1.11,2.12,1.74,1.14,4.8-.92,5.6-.81.31-1.65.45-2.52.43-1.47-.03-2.79-.55-4.07-1.2-.49-.25-.91-.72-1.55-.56-.8,1.52-.61,2.63.74,3.3,3.08,1.53,6.25,1.74,9.41.22,4.3-2.07,4.79-8.46.44-10.87Z"/>
    <path d="M423,224.34c-1.2-.45-2.44-.58-3.71-.54-3.81.11-6.61,2.42-7.41,6.14-.37,1.74-.46,3.5-.04,5.39.12.47.2.8.3,1.12.8,2.41,2.43,3.97,4.93,4.49,1.05.22,2.16.31,3.23.24,3.07-.21,5.32-1.7,6.44-4.59,1.14-2.93,1.07-5.91-.14-8.82-.69-1.66-1.92-2.79-3.62-3.43ZM424.03,234.95c-.48,2.1-1.75,3.45-3.94,3.64-.17.01-.34.03-.51.04-.64-.06-.98-.1-1.31-.17-1.39-.31-2.36-1.15-2.85-2.45-.83-2.2-.88-4.45-.05-6.66.9-2.4,3.42-3.51,5.88-2.69.84.28,1.54.76,1.98,1.53.3.54.57,1.11.74,1.71.47,1.67.45,3.37.07,5.05Z"/>
    <path d="M195.46,224.09c-4.4-1.25-8.55,1.15-9.58,5.59-.62,2.67-.51,5.31.71,7.96,1.19,2.09,2.95,3.14,5.15,3.48,1.36.21,2.74.21,4.09-.08.95-.2,1.88-.49,2.8-.78.62-.19.89-.69.9-1.31,0-.46-.02-.91-.56-1.32-.56.17-1.21.34-1.85.55-1.32.43-2.66.67-4.05.53-2.93-.3-4.47-2.35-4.03-5.42.31-.03.64-.07.98-.08,1.03,0,2.06,0,3.09,0,1.83,0,3.66.03,5.49,0,1.23-.02,1.63-.44,1.63-1.68,0-1.44-.27-2.83-.86-4.14-.78-1.72-2.12-2.8-3.91-3.31ZM189.24,230.98c-.26-3.14,1.81-4.98,4.66-4.59,1.4.19,2.29.99,2.78,2.23.26.67.33,1.42.48,2.12-1.27.37-3.77.43-7.92.24Z"/>
    <path d="M263.57,227.19c-.44-1.47-1.42-2.47-2.87-2.93-2.75-.86-5.41-.54-7.98.74-.83.41-1.13,1.07-1.08,1.95.04.82.52,1.13,1.26.79.52-.24,1.01-.54,1.53-.77,1.34-.57,2.73-.82,4.18-.51,1.05.22,1.77.86,2.03,1.86.23.87.37,1.78.09,2.75-.27.05-.54.12-.82.13-.91.02-1.83,0-2.74.03-1.45.05-2.84.37-4.09,1.12-1.69,1.02-2.36,2.6-2.19,4.5.17,1.92,1.16,3.32,3.03,3.97,1.99.69,3.93.59,5.76-.56.38-.24.76-.51,1.15-.74.07-.04.2.02.35.04.1.4.21.82.32,1.24.82.14,1.54.24,2.37-.07.04-.56.11-1.11.11-1.67.02-1.76.03-3.53.02-5.29-.01-1.59-.07-3.18-.11-4.92-.11-.65-.16-1.16-.3-1.65ZM260.85,236.14c0,.21-.11.46-.25.62-.94,1.04-2.03,1.84-3.48,1.99-.34.03-.69.01-1.02-.05-1.17-.21-1.84-.87-2.05-2-.21-1.16.22-2.18,1.3-2.71.6-.29,1.3-.39,1.95-.58,1.32-.02,2.34-.02,3.37-.02.37.94.21,1.86.18,2.75Z"/>
    <path d="M535.67,231.39c-.01-1.19-.13-2.39-.23-3.72-.47-1.72-1.39-2.9-3.01-3.41-2.76-.87-5.43-.55-7.98.77-.98.51-1.22,1.17-.98,2.29.09.45.47.68.9.5.58-.24,1.13-.55,1.7-.81,1.39-.64,2.84-.86,4.35-.55.85.17,1.49.66,1.79,1.44.39,1.01.57,2.06.22,3.2-.42.03-.81.09-1.2.1-.74.02-1.49,0-2.23.02-1.39.06-2.72.37-3.95,1.03-1.75.94-2.52,2.48-2.44,4.38.09,1.98,1.07,3.47,3.01,4.17,1.99.71,3.93.64,5.77-.5.47-.29.94-.59,1.49-.94.12.55.22.97.31,1.4.78.21,1.5.28,2.21.02.34-.49.25-1.02.25-1.52.01-2.62.04-5.24.01-7.86ZM532.59,236.16c-.02.3-.25.64-.47.87-.4.4-.88.72-1.32,1.07-.89.49-1.6.68-2.36.65-1.44-.05-2.38-.78-2.59-2.01-.23-1.4.35-2.42,1.69-2.98.16-.07.32-.12.49-.16,1.45-.31,2.91-.36,4.41-.19.31.94.21,1.85.15,2.74Z"/>
    <path d="M298.92,227.51c-.39-1.7-1.47-2.83-3.13-3.31-2.69-.78-5.32-.48-7.82.76-1.07.53-1.29,1.05-1.14,2.22.08.62.5.87,1.11.61.52-.22,1.02-.51,1.54-.75,1.33-.61,2.71-.85,4.17-.63,1.29.19,2.06.94,2.35,2.16.19.82.24,1.66.02,2.53-.85.21-1.65.11-2.44.11-1.44,0-2.85.15-4.34.69-.52.27-.95.45-1.31.72-1.56,1.11-2.07,2.68-1.83,4.49.24,1.86,1.27,3.15,3.06,3.75,1.99.66,3.94.57,5.76-.56.39-.24.75-.51,1.14-.75.08-.05.21,0,.33,0,.12.42.23.84.37,1.31.83.08,1.61.26,2.34-.16.03-.23.08-.39.08-.56,0-3.64,0-7.28-.02-10.92,0-.56-.1-1.13-.22-1.68ZM296.11,236.12c0,.25-.15.55-.33.74-.76.87-1.68,1.52-2.83,1.79-2.27.54-4.18-.8-3.72-2.97.49-1.38,1.34-1.94,2.49-2.13,1.4-.24,2.8-.27,4.3-.17.21.96.13,1.85.09,2.74Z"/>
    <path d="M351.5,224.36c-.02.6-.05,1.17-.05,1.73,0,2.85,0,5.69-.02,8.54,0,.45.05.92-.28,1.3-.71.82-1.43,1.63-2.39,2.18-1.95,1.13-4.02.32-4.56-1.85-.22-.87-.3-1.8-.32-2.7-.04-2.73-.02-5.46-.04-8.19,0-.37-.11-.75-.17-1.13-.94-.16-1.78-.2-2.69.02-.05.35-.14.68-.14,1.01-.01,3.24-.05,6.49.02,9.73.02,1,.25,2.04.57,3,.58,1.78,1.94,2.79,3.74,3.14,1.63.31,3.19.06,4.58-.92.42-.3.8-.64,1.22-.94.2-.14.43-.24.67-.37.22.7-.09,1.37.39,1.95.78,0,1.57.3,2.37-.32.07-5.2.09-10.26.09-15.33,0-.32-.11-.64-.18-.99-.97-.1-1.86-.26-2.8.15Z"/>
    <path d="M183.27,238.19c-.41-.01-.92-.05-1.43-.05-1.89,0-3.78,0-5.66,0-.32,0-.64-.09-1.07-.16,0-3.72-.01-7.35-.02-11.16-.03-2.85-.05-5.52-.09-8.19,0-.1-.1-.19-.21-.39-.88-.13-1.82-.19-2.79.08-.04.35-.1.62-.1.9,0,6.55,0,13.09,0,19.64,0,.23.01.46.04.68.1.98.32,1.21,1.25,1.27.28.02.57.01.86.01,1.66,0,3.32,0,4.98,0,1.2,0,2.4.02,3.6,0,.88-.02,1.1-.25,1.11-1.14,0-.5.1-1.04-.48-1.5Z"/>
    <path d="M334.89,238.46c-1.17.09-1.84-.44-2.07-1.58-.09-.44-.11-.9-.12-1.36-.02-2.62-.03-5.24-.04-7.86,0-.27.06-.54.1-.9.48-.03.86-.06,1.41-.09,1.06-.07,1.99.19,2.83-.24.36-.83.4-1.57-.24-2.34-1.01,0-2.04.01-3.06,0-.32,0-.63-.11-.93-.17-.28-1.37.11-2.7-.28-3.97-.96-.2-1.84-.26-2.83.02-.01,1.08,0,2.1-.04,3.12-.01.31-.12.63-.19.95-.84.05-1.57.1-2.27.14q-.39,1.25.07,2.36c.74.1,1.51.2,2.33.31.02.67.06,1.23.06,1.79,0,2.28-.01,4.56.01,6.83,0,.79.04,1.6.17,2.38.22,1.31.9,2.36,2.18,2.86,1.31.52,2.68.55,4.04.17.59-.16,1.05-.49,1.19-1.11.13-.62.14-1.24-.44-1.67-.66.13-1.27.32-1.89.37Z"/>
    <path d="M509.1,232.25c-.51-.26-1.03-.48-1.56-.7-.68-.29-1.39-.53-2.06-.85-.46-.22-.92-.47-1.3-.8-1.14-1.01-.86-2.72.52-3.39.92-.44,1.89-.48,2.84-.2.71.2,1.39.52,2.09.76.25.08.52.08.85.13.1-.36.22-.62.24-.89.06-1.16-.17-1.52-1.23-1.95-1.18-.48-2.43-.62-3.7-.56-1.16.05-2.24.39-3.24,1-2.41,1.46-2.78,5.31-.61,7.07.61.49,1.32.89,2.03,1.23.97.47,2,.83,2.99,1.28,1.01.47,1.66,1.21,1.41,2.56-.33,1.05-1.04,1.45-1.93,1.66-.91.22-1.83.24-2.7-.08-.8-.29-1.56-.68-2.35-1-.29-.12-.62-.16-.92-.23-.52,1.72-.37,2.46.77,3.01,2.62,1.26,5.3,1.37,7.91,0,1.66-.88,2.37-2.36,2.35-4.24-.02-1.78-.84-3.02-2.4-3.82Z"/>
    <path d="M434.4,216.6c-.85-.13-1.74-.22-2.72.11v9.09c0,4.67.01,9.17.03,13.66,0,.44.07.88.12,1.33.99.14,1.89.31,2.86-.15.02-.57.06-1.13.06-1.69,0-2.96,0-5.92,0-8.88,0-3.93,0-7.86-.01-11.78,0-.55.14-1.14-.33-1.68Z"/>
    <path d="M495.9,218.62c0-.05-.02-.11-.05-.16-.03-.04-.08-.07-.23-.21-.82-.12-1.75-.16-2.81.06-.04,7.19-.03,14.3.02,21.4,0,.33.07.65.12,1.02,1.01.21,1.93.31,2.96-.07.01-.85.03-1.64.04-2.6,0-5.51,0-10.86,0-16.21,0-1.08-.03-2.16-.05-3.24Z"/>
    <path d="M518.29,216.63c-.97-.13-1.85-.25-2.85.15-.08,6.82.02,13.64,0,20.63.07,1.22-.16,2.31.23,3.35.92.17,1.74.22,2.73-.06.05-2.01.03-3.99.04-5.96,0-1.99,0-3.98,0-5.97,0-2.05.02-4.1,0-6.14-.03-1.97.13-3.95-.14-5.99Z"/>
    <path d="M439.98,224.29c-.06.4-.16.78-.16,1.17,0,4.78,0,9.55.01,14.33,0,.32.09.64.14.99.99.16,1.87.24,2.77-.04.04-.31.09-.53.09-.75,0-4.89.01-9.78,0-14.67,0-.33-.13-.66-.32-1.06-.91-.18-1.7-.26-2.54.03Z"/>
    <path d="M381.43,224.33c-.96-.33-1.82-.31-2.9-.01-.03,3.3-.01,6.58-.02,10.03,0,1.19-.03,2.22.01,3.24.04,1.06-.17,2.14.19,3.15q1.59.26,2.85-.16c.07-1.75.03-3.55.04-5.36,0-1.82.03-3.63,0-5.45-.03-1.8.15-3.61-.16-5.43Z"/>
    <path d="M461.3,217.59c-.28,0-.58,0-.85.06-.21.05-.45.16-.58.32-.57.67-.56,1.45-.34,2.25.18.65.67.88,1.28.93.28.02.57,0,.98-.02.6-.1,1.05-.3,1.2-.76.15-.47.24-1,.18-1.48-.13-.95-.68-1.29-1.87-1.3Z"/>
    <path d="M442.01,217.63c-.82-.05-1.78-.35-2.3.59-.87,1.58.03,3.02,1.8,2.91.43-.03.84-.25,1.36-.49.38-.69.35-1.31.25-1.93-.1-.65-.47-1.05-1.11-1.09Z"/>
    <path d="M380.14,217.58c-.28.01-.57,0-.85.04-.63.1-1.02.48-1.08,1.13-.04.5.02,1.01.09,1.64.81,1,1.77.86,2.72.61.2-.05.41-.22.53-.39.5-.71.48-1.48.13-2.25-.31-.67-.89-.8-1.56-.78Z"/>
  </g>
</svg>